<svg xmlns="http://www.w3.org/2000/svg" viewBox="0 0 1450.85 260"><defs><style>.cls-1{fill:#fff;}</style></defs><g id="Layer_2" data-name="Layer 2"><g id="Layer_1-2" data-name="Layer 1"><path class="cls-1" d="M99.77,0V9.75q-16.44.45-22.5,8T71.2,48.45V67.81q0,33.52-7.48,45.57T36.41,130.15Q56.26,135,63.72,146.86T71.2,192v19.27q0,23.25,6.07,30.83t22.5,8.17V260H98q-33.9,0-46.55-11T38.78,208.6V181.26q0-24.81-8.07-34T0,135.91V124.09q22.65-2.07,30.71-11.3t8.07-34.05V51.26q0-29.4,12.66-40.33T98,0Z"/><path class="cls-1" d="M274.63,0h1.78Q310.29,0,323,10.93t12.66,40.33V78.74q0,24.81,8.06,34.05t30.72,11.3v11.82q-22.65,2.22-30.72,11.37t-8.06,34V208.6Q335.62,238,323,249t-46.55,11h-1.78v-9.75q16.44-.58,22.5-8.17t6.07-30.83V192q0-33.27,7.48-45.12T338,130.15q-19.85-5-27.31-17T303.2,67.81V48.45q0-23.19-6.07-30.72t-22.5-8Z"/><path class="cls-1" d="M184,43.2a18.37,18.37,0,1,1-18.37,18.36A18.35,18.35,0,0,1,184,43.2Zm47,196.38,4.32-1.15,1.58,5.94,4.34-1.17,3.15,11.8,3.24-.86-3.15-11.8,4.3-1.16-1.59-5.94,4.34-1.16-41-153a32.88,32.88,0,0,0-18.14-51.33V5H175.62V29.73A32.86,32.86,0,0,0,157.47,81l-41,153,4.5,20.05,16-14.55,39.14-146a31.74,31.74,0,0,0,15.73,0Z"/><rect class="cls-1" x="109.82" y="127.74" width="148.35" height="4.52"/><path class="cls-1" d="M422.48,161v12.54H501v24.11H422.48v25.47c0,6.75,5.06,12.35,11.16,12.35h89.13v24.11H433.64c-18.14,0-32.79-16.39-32.79-36.46V161c0-20.07,14.65-36.46,32.79-36.46h89.13v24.11H433.64C427.54,148.68,422.48,154.28,422.48,161Z"/><path class="cls-1" d="M671,124.76V259.81l-21.8-18.52-78.5-66.95v85.47h-21.8V125.15l21.8,18.52,78.5,66.94v-86Z"/><path class="cls-1" d="M719,192.09c0,23.92,17.62,43.41,39.24,43.41h39.25V209.65H758.23V185.53h61v74.08h-61c-33.66,0-61-30.29-61-67.52s27.38-67.52,61-67.52h61v24.11h-61C736.61,148.68,719,168.17,719,192.09Z"/><path class="cls-1" d="M845.44,259.61v-135h21.8v135Z"/><path class="cls-1" d="M1015.5,124.76V259.81l-21.8-18.52-78.49-66.95v85.47H893.4V125.15l21.81,18.52,78.49,66.94v-86Z"/><path class="cls-1" d="M1063.46,161v12.54H1142v24.11h-78.49v25.47c0,6.75,5.06,12.35,11.16,12.35h89.14v24.11h-89.14c-18.14,0-32.79-16.39-32.79-36.46V161c0-20.07,14.65-36.46,32.79-36.46h89.14v24.11h-89.14C1068.52,148.68,1063.46,154.28,1063.46,161Z"/><path class="cls-1" d="M1211.72,161v12.54h78.49v24.11h-78.49v25.47c0,6.75,5,12.35,11.16,12.35H1312v24.11h-89.13c-18.14,0-32.79-16.39-32.79-36.46V161c0-20.07,14.65-36.46,32.79-36.46H1312v24.11h-89.13C1216.77,148.68,1211.72,154.28,1211.72,161Z"/><path class="cls-1" d="M1436.72,235.88,1447.88,260h-24.42l-11.16-24.12-11.69-25.27-.52-1.16c-3.84-6.94-10.64-11.57-18.49-11.57h-21.81V260H1338V125h77.1a31.17,31.17,0,0,1,23.19,10.61,38.14,38.14,0,0,1,9.6,25.66c0,14.66-7.85,27.4-19.19,33.19a27.08,27.08,0,0,1-9.42,2.89Zm-21.63-62.12a9.26,9.26,0,0,0,4.53-1.16,12.34,12.34,0,0,0,6.63-11.18,13.4,13.4,0,0,0-3.31-8.88,10.53,10.53,0,0,0-7.85-3.47h-55.3V174Z"/><path class="cls-1" d="M479.16.12V15.61H447V86.86H433V15.61H400.85V.12Z"/><path class="cls-1" d="M574.5,0V86.74h-14V47H510.08V86.74h-14V0h14V31.47h50.41V0Z"/><path class="cls-1" d="M605.3,23.42v8h50.42V47H605.3V63.32c0,4.34,3.25,7.93,7.17,7.93h57.25V86.74H612.47c-11.65,0-21.06-10.53-21.06-23.42V23.42C591.41,10.53,600.82,0,612.47,0h57.25V15.49H612.47C608.55,15.49,605.3,19.08,605.3,23.42Z"/><path class="cls-1" d="M1246.11,86.86V0h14V86.86Z"/><path class="cls-1" d="M1355.49.12V87l-14-11.91L1291,32V87h-14V.37l14,11.92,50.49,43.06V0Z"/><path class="cls-1" d="M1386.34,43.43c0,15.39,11.33,27.92,25.24,27.92h25.25V54.72h-25.25V39.21h39.27V86.86h-39.27c-21.65,0-39.26-19.48-39.26-43.43S1389.93,0,1411.58,0h39.27V15.51h-39.27C1397.67,15.51,1386.34,28,1386.34,43.43Z"/><path class="cls-1" d="M785.62.12c21.48,0,38.94,19.33,38.94,43.25a46,46,0,0,1-9.23,28c-.67.86-1.45,1.73-2.23,2.6a36.43,36.43,0,0,1-27.37,12.76H746.79V0Zm-25,71.26h25c13.8,0,25-12.52,25-27.89s-11.24-27.88-25-27.88h-25Z"/><path class="cls-1" d="M855.27,23.42v8h50.06V47H855.27V63.32c0,4.34,3.22,7.93,7.12,7.93h56.85V86.74H862.39c-11.57,0-20.92-10.53-20.92-23.42V23.42C841.47,10.53,850.82,0,862.39,0h56.85V15.49H862.39C858.49,15.49,855.27,19.08,855.27,23.42Z"/><path class="cls-1" d="M995.67,24v-.5c0-4.33-3.22-7.93-7.12-7.93H957c-3.89,0-7.12,3.6-7.12,7.93V24c0,4.34,3.23,7.93,7.12,7.93h28a23.41,23.41,0,0,1,18.14,8.92c.33.37.55.75.89,1.12a29.41,29.41,0,0,1,5.56,17.35c0,15.11-11,27.38-24.59,27.38H960.63C947.05,86.74,936,74.47,936,59.36H950c0,6.56,4.78,11.89,10.68,11.89H985c5.9,0,10.79-5.33,10.79-11.89s-4.89-11.9-10.79-11.9H957a19.74,19.74,0,0,1-14.57-6.57,21.22,21.22,0,0,1-2.67-3.72A24.83,24.83,0,0,1,936,23.92v-.5C936,10.53,945.38,0,957,0h31.6c11.57,0,21,10.53,21,23.42v.5Z"/><path class="cls-1" d="M1026.27,86.74V0h13.9V86.74Z"/><path class="cls-1" d="M1070.77,43.37c0,15.37,11.23,27.88,25,27.88h25V54.65h-25V39.16h38.94V86.74H1095.8c-21.47,0-38.94-19.45-38.94-43.37S1074.33,0,1095.8,0h38.94V15.49H1095.8C1082,15.49,1070.77,28,1070.77,43.37Z"/><path class="cls-1" d="M1229.31.12V86.86L1215.4,75l-50.06-43V86.86h-13.91V.37l13.91,11.9,50.06,43V0Z"/></g></g></svg>